<?xml version="1.0" encoding="UTF-8"?>
<svg id="Layer_2" data-name="Layer 2" xmlns="http://www.w3.org/2000/svg" viewBox="0 0 679.08 74.32">
  <defs>
    <style>
      .cls-1 {
        fill: #307fe2;
      }
    </style>
  </defs>
  <g id="Layer_1-2" data-name="Layer 1">
    <g>
      <g>
        <path class="cls-1" d="M60.53,65.27c.74,0,1.34-.6,1.34-1.34v-16.4c0-.81-.72-1.43-1.52-1.33-10.91,1.34-14.07,13.17-14.86,17.5-.15.82.49,1.58,1.32,1.58h13.72Z"/>
        <path class="cls-1" d="M64.4,13.33h-20.49l-10.97-10.97c-1.28-1.28-3.02-2.02-4.84-2.05L7.09,0C3.83-.05,1.07,2.15.25,5.15l36.6,36.6c1.88,0,3.91.1,5.34-.28,2.95-.78,6.29-1.86,9.06-4.96,3.05-3.41,2.4-8.75,1.38-12.42-.38-1.35-2.71-4.21-4.91-6.69h16.68c1.27,0,2.31,1.04,2.31,2.31v48.22c0,1.27-1.04,2.31-2.31,2.31H16.18c-1.27,0-2.31-1.04-2.31-2.31v-23.05l14.57,15.16c1.39,1.44,3.82.44,3.79-1.56l-.24-13.92L0,12.57v15.07c0,1.81.7,3.54,1.95,4.84l7.85,8.16v27.29c0,3.52,2.86,6.38,6.38,6.38h48.22c3.52,0,6.38-2.86,6.38-6.38V19.71c0-3.52-2.86-6.38-6.38-6.38Z"/>
      </g>
      <g>
        <path class="cls-1" d="M88.28,71.96c-.61-.61-.92-1.56-.92-2.85v-35.78c0-.99.18-1.67.53-2.02.35-.35,1.05-.53,2.1-.53h7.02c.7,0,1.21.12,1.53.35.32.23.51.64.57,1.23l.35,2.81c3.51-3.8,7.89-5.7,13.15-5.7,1.69,0,3.08.13,4.17.4,1.08.26,2.03.69,2.85,1.27.53.41.79.82.79,1.23,0,.18-.06.44-.18.79l-2.19,6.58c-.23.7-.61,1.05-1.14,1.05-.23,0-.53-.09-.88-.26-1.52-.76-3.27-1.14-5.26-1.14-2.57,0-4.71.73-6.4,2.19-1.7,1.46-2.54,3.42-2.54,5.88v21.66c0,1.29-.29,2.24-.88,2.85-.58.61-1.61.92-3.07.92h-6.49c-1.46,0-2.5-.31-3.11-.92Z"/>
        <path class="cls-1" d="M127.25,23.51c-.94-.93-1.4-2.07-1.4-3.42v-2.02c0-1.34.47-2.48,1.4-3.42s2.22-1.4,3.86-1.4h5.09c1.69,0,3.01.47,3.95,1.4.93.94,1.4,2.08,1.4,3.42v2.02c0,1.34-.47,2.48-1.4,3.42-.94.94-2.25,1.4-3.95,1.4h-5.09c-1.64,0-2.92-.47-3.86-1.4ZM127.34,71.96c-.59-.61-.88-1.56-.88-2.85v-34.46c0-1.34.29-2.32.88-2.94.58-.61,1.61-.92,3.07-.92h6.49c1.46,0,2.5.32,3.11.96.61.64.92,1.61.92,2.89v34.46c0,1.29-.31,2.24-.92,2.85-.61.61-1.65.92-3.11.92h-6.49c-1.46,0-2.49-.31-3.07-.92Z"/>
        <path class="cls-1" d="M155.31,68.45c-4.38-3.83-6.58-9.34-6.58-16.53,0-4.44,1.01-8.36,3.02-11.75,2.02-3.39,4.92-6.02,8.72-7.89,3.8-1.87,8.27-2.81,13.42-2.81,3.8,0,7.04.38,9.73,1.14,2.69.76,5.14,1.9,7.37,3.42.58.41.88.88.88,1.4,0,.47-.18.96-.53,1.49l-2.98,5.17c-.41.7-.82,1.05-1.23,1.05-.29,0-.79-.2-1.49-.61-1.7-1.05-3.33-1.84-4.91-2.37-1.58-.53-3.48-.79-5.7-.79-3.68,0-6.59,1.13-8.72,3.37-2.13,2.25-3.2,5.31-3.2,9.16,0,4.09,1.07,7.16,3.2,9.21,2.13,2.05,5.22,3.07,9.25,3.07,2.22,0,4.17-.28,5.83-.83,1.67-.56,3.29-1.33,4.87-2.32.7-.41,1.2-.61,1.49-.61.41,0,.82.35,1.23,1.05l3.24,5.52c.29.47.44.85.44,1.14,0,.47-.35.94-1.05,1.4-2.46,1.58-5.07,2.75-7.85,3.51-2.78.76-6.07,1.14-9.86,1.14-8.01,0-14.2-1.91-18.59-5.74Z"/>
        <path class="cls-1" d="M204.68,68.45c-4.38-3.83-6.58-9.34-6.58-16.53,0-4.44,1.01-8.36,3.02-11.75,2.02-3.39,4.92-6.02,8.72-7.89,3.8-1.87,8.27-2.81,13.42-2.81,3.8,0,7.04.38,9.73,1.14,2.69.76,5.14,1.9,7.37,3.42.58.41.88.88.88,1.4,0,.47-.18.96-.53,1.49l-2.98,5.17c-.41.7-.82,1.05-1.23,1.05-.29,0-.79-.2-1.49-.61-1.7-1.05-3.33-1.84-4.91-2.37-1.58-.53-3.48-.79-5.7-.79-3.68,0-6.59,1.13-8.72,3.37-2.13,2.25-3.2,5.31-3.2,9.16,0,4.09,1.07,7.16,3.2,9.21,2.13,2.05,5.22,3.07,9.25,3.07,2.22,0,4.17-.28,5.83-.83,1.67-.56,3.29-1.33,4.87-2.32.7-.41,1.2-.61,1.49-.61.41,0,.82.35,1.23,1.05l3.24,5.52c.29.47.44.85.44,1.14,0,.47-.35.94-1.05,1.4-2.46,1.58-5.07,2.75-7.85,3.51-2.78.76-6.07,1.14-9.86,1.14-8.01,0-14.2-1.91-18.59-5.74Z"/>
        <path class="cls-1" d="M259.7,71.78c-3.77-1.61-6.75-4.03-8.94-7.28-2.19-3.24-3.29-7.26-3.29-12.06,0-7.48,2.06-13.18,6.18-17.1,4.12-3.92,10.01-5.88,17.67-5.88s13.25,1.9,17.14,5.7c3.89,3.8,5.83,9.21,5.83,16.22,0,2.46-1.11,3.68-3.33,3.68h-29.81c0,3.16,1.18,5.6,3.55,7.32,2.37,1.73,5.63,2.59,9.78,2.59,2.46,0,4.59-.25,6.4-.75,1.81-.5,3.56-1.21,5.26-2.15.58-.29.99-.44,1.23-.44.41,0,.79.32,1.14.96l2.54,4.73c.23.41.35.76.35,1.05,0,.47-.32.94-.96,1.4-2.34,1.52-4.97,2.63-7.89,3.33-2.92.7-6.28,1.05-10.08,1.05-4.73,0-8.99-.8-12.76-2.41ZM281.31,47.54c0-2.92-.82-5.2-2.46-6.84-1.64-1.64-4.12-2.46-7.45-2.46s-5.87.83-7.63,2.5c-1.75,1.67-2.63,3.93-2.63,6.79h20.17Z"/>
        <path class="cls-1" d="M302.4,71.96c-.61-.61-.92-1.56-.92-2.85V17.11c0-1.28.31-2.25.92-2.89.61-.64,1.62-.96,3.03-.96h6.58c1.46,0,2.48.31,3.07.92.58.61.88,1.59.88,2.94v52c0,1.29-.29,2.24-.88,2.85-.58.61-1.61.92-3.07.92h-6.58c-1.4,0-2.41-.31-3.03-.92Z"/>
        <path class="cls-1" d="M325.81,71.96c-.61-.61-.92-1.56-.92-2.85V17.11c0-1.28.31-2.25.92-2.89.61-.64,1.62-.96,3.03-.96h6.58c1.46,0,2.48.31,3.07.92.58.61.88,1.59.88,2.94v52c0,1.29-.29,2.24-.88,2.85-.58.61-1.61.92-3.07.92h-6.58c-1.4,0-2.41-.31-3.03-.92Z"/>
        <path class="cls-1" d="M349.71,23.51c-.94-.93-1.4-2.07-1.4-3.42v-2.02c0-1.34.47-2.48,1.4-3.42s2.22-1.4,3.86-1.4h5.09c1.69,0,3.01.47,3.95,1.4.93.94,1.4,2.08,1.4,3.42v2.02c0,1.34-.47,2.48-1.4,3.42-.94.94-2.25,1.4-3.95,1.4h-5.09c-1.64,0-2.92-.47-3.86-1.4ZM349.79,71.96c-.59-.61-.88-1.56-.88-2.85v-34.46c0-1.34.29-2.32.88-2.94.58-.61,1.61-.92,3.07-.92h6.49c1.46,0,2.5.32,3.11.96.61.64.92,1.61.92,2.89v34.46c0,1.29-.31,2.24-.92,2.85-.61.61-1.65.92-3.11.92h-6.49c-1.46,0-2.49-.31-3.07-.92Z"/>
        <path class="cls-1" d="M379.56,68.49c-4.18-3.8-6.27-9.26-6.27-16.4,0-4.38.95-8.3,2.85-11.75,1.9-3.45,4.56-6.12,7.98-8.02,3.42-1.9,7.35-2.85,11.79-2.85,3.51,0,6.56.32,9.16.96,2.6.64,4.98,1.73,7.15,3.24.35.24.56.44.61.61.06.18,0,.44-.18.79l-1.14,1.93c-.18.35-.38.53-.61.53-.12,0-.32-.09-.61-.26-1.75-1.23-3.73-2.16-5.92-2.81-2.19-.64-4.9-.96-8.11-.96-5.67,0-10.16,1.67-13.46,5-3.3,3.33-4.95,7.86-4.95,13.59,0,6.08,1.68,10.61,5.04,13.59,3.36,2.98,8.14,4.47,14.34,4.47,5.49,0,10.05-1.28,13.68-3.86.23-.18.44-.26.61-.26.23,0,.44.18.61.53l1.14,1.93c.12.35.18.56.18.61,0,.29-.21.56-.61.79-4.38,2.86-9.68,4.3-15.87,4.3-7.42,0-13.23-1.9-17.41-5.7Z"/>
        <path class="cls-1" d="M424.94,70.86v-38.05c0-.7.12-1.21.35-1.53.23-.32.67-.48,1.31-.48h.88c.64,0,1.08.16,1.31.48.23.32.35.83.35,1.53v3.77c1.58-2.22,3.58-3.96,6.01-5.22,2.42-1.26,5.27-1.89,8.55-1.89.7,0,1.4.06,2.1.18.7.12,1.2.26,1.49.44.47.29.64.61.53.96l-.35,2.54c-.06.53-.38.67-.96.44-1.17-.35-2.49-.53-3.95-.53-3.68,0-6.75,1.04-9.21,3.11-2.46,2.08-3.68,4.98-3.68,8.73v25.51c0,1.35-.67,2.02-2.02,2.02h-.7c-1.34,0-2.02-.67-2.02-2.02Z"/>
        <path class="cls-1" d="M462.29,68.93c-4.33-3.51-6.49-8.91-6.49-16.22s1.93-13.37,5.79-17.32c3.86-3.95,9.29-5.92,16.31-5.92,14.03,0,21.04,7.57,21.04,22.71,0,.53-.15.95-.44,1.27-.29.32-.73.48-1.32.48h-36.74c0,5.32,1.68,9.35,5.04,12.1,3.36,2.75,8.02,4.12,13.99,4.12,2.75,0,5.33-.32,7.76-.96,2.43-.64,4.49-1.55,6.18-2.72.23-.18.44-.26.61-.26.23,0,.44.18.61.53l1.14,1.93c.12.18.18.38.18.61s-.21.5-.61.79c-2.16,1.4-4.72,2.44-7.67,3.11-2.95.67-5.92,1.01-8.9,1.01-6.66,0-12.16-1.75-16.48-5.26ZM494.38,49.64c0-5.14-1.37-9.12-4.12-11.93-2.75-2.81-6.87-4.21-12.36-4.21s-9.85,1.46-12.89,4.38c-3.04,2.92-4.56,6.84-4.56,11.75h33.93Z"/>
        <path class="cls-1" d="M513.85,69.11c-3.51-3.39-5.26-8.21-5.26-14.47,0-5.03.98-9.43,2.94-13.2,1.96-3.77,4.82-6.71,8.59-8.81,3.77-2.1,8.26-3.16,13.46-3.16,3.21,0,6.39.47,9.51,1.4,3.13.94,5.71,2.1,7.76,3.51v36.48c0,1.35-.67,2.02-2.02,2.02h-.61c-.64,0-1.1-.16-1.36-.48-.26-.32-.42-.83-.48-1.54l-.26-4.21c-3.98,5.03-10,7.54-18.06,7.54-5.96,0-10.7-1.69-14.2-5.08ZM537.61,68.54c2.51-1.08,4.56-2.64,6.14-4.69,1.58-2.05,2.37-4.41,2.37-7.1v-20.26c-1.52-.88-3.41-1.59-5.66-2.15-2.25-.56-4.55-.83-6.88-.83-6.31,0-11.3,1.81-14.95,5.44-3.65,3.63-5.48,8.68-5.48,15.17,0,5.5,1.36,9.54,4.08,12.14,2.72,2.6,6.91,3.9,12.58,3.9,2.69,0,5.29-.54,7.8-1.62Z"/>
        <path class="cls-1" d="M571.59,70.56c-2.02-2.43-3.03-5.77-3.03-10.04v-25.43h-6.05c-.7,0-1.21-.13-1.54-.4-.32-.26-.48-.72-.48-1.36v-.61c0-1.29.67-1.93,2.02-1.93h6.05v-7.45c0-.99.12-1.87.35-2.63.23-.76.67-1.78,1.31-3.07.18-.35.34-.58.48-.7s.37-.18.66-.18h.61c.88,0,1.31.53,1.31,1.58v12.45h13.33c1.34,0,2.02.64,2.02,1.93v.61c0,.64-.16,1.1-.48,1.36-.32.26-.83.4-1.54.4h-13.33v25.16c0,3.39.61,5.89,1.84,7.5,1.23,1.61,3.3,2.41,6.23,2.41,1.69,0,3.16-.2,4.38-.61,1.23-.41,2.51-1.05,3.86-1.93.29-.18.5-.26.61-.26.23,0,.44.18.61.53l1.23,1.93c.12.23.18.41.18.53,0,.29-.21.58-.61.88-2.92,1.99-6.4,2.98-10.43,2.98-4.38,0-7.58-1.21-9.6-3.64Z"/>
        <path class="cls-1" d="M605.96,68.19c-3.83-4-5.74-9.46-5.74-16.35s1.91-12.35,5.74-16.35c3.83-4,9.34-6.01,16.53-6.01s12.7,2,16.53,6.01c3.83,4,5.74,9.46,5.74,16.35s-1.92,12.35-5.74,16.35c-3.83,4-9.34,6.01-16.53,6.01s-12.7-2-16.53-6.01ZM635.64,65.38c3.04-3.18,4.56-7.7,4.56-13.55s-1.52-10.36-4.56-13.55c-3.04-3.18-7.42-4.78-13.15-4.78s-10.11,1.59-13.15,4.78c-3.04,3.19-4.56,7.7-4.56,13.55s1.52,10.36,4.56,13.55c3.04,3.19,7.42,4.78,13.15,4.78s10.11-1.59,13.15-4.78Z"/>
        <path class="cls-1" d="M656.16,70.86v-38.05c0-.7.12-1.21.35-1.53.23-.32.67-.48,1.31-.48h.88c.64,0,1.08.16,1.31.48.23.32.35.83.35,1.53v3.77c1.58-2.22,3.58-3.96,6.01-5.22,2.42-1.26,5.27-1.89,8.55-1.89.7,0,1.4.06,2.1.18.7.12,1.2.26,1.49.44.47.29.64.61.53.96l-.35,2.54c-.06.53-.38.67-.96.44-1.17-.35-2.49-.53-3.95-.53-3.68,0-6.75,1.04-9.21,3.11-2.46,2.08-3.68,4.98-3.68,8.73v25.51c0,1.35-.67,2.02-2.02,2.02h-.7c-1.34,0-2.02-.67-2.02-2.02Z"/>
      </g>
    </g>
  </g>
</svg>