<?xml version="1.0" encoding="UTF-8"?>
<svg id="Layer_2" data-name="Layer 2" xmlns="http://www.w3.org/2000/svg" viewBox="0 0 266.39 279.68">
  <defs>
    <style>
      .cls-1 {
        fill: #307fe2;
      }
    </style>
  </defs>
  <g id="Layer_1-2" data-name="Layer 1">
    <g>
      <path class="cls-1" d="M227.82,245.63c2.79,0,5.06-2.26,5.06-5.06v-61.72c0-3.06-2.69-5.39-5.73-5.02-41.05,5.06-52.94,49.56-55.93,65.85-.57,3.1,1.83,5.95,4.98,5.95h51.63Z"/>
      <path class="cls-1" d="M242.37,50.16h-77.12L123.98,8.88c-4.84-4.84-11.36-7.6-18.2-7.7L26.69,0C14.42-.18,4.03,8.08.95,19.37l137.75,137.75c7.07.02,14.73.39,20.09-1.04,11.09-2.95,23.68-7.02,34.11-18.65,11.48-12.81,9.04-32.94,5.2-46.75-1.41-5.08-10.2-15.86-18.49-25.19h62.76c4.79,0,8.69,3.9,8.69,8.69v181.48c0,4.79-3.9,8.69-8.69,8.69H60.89c-4.79,0-8.69-3.9-8.69-8.69v-86.75l54.83,57.05c5.22,5.43,14.38,1.64,14.25-5.88l-.92-52.39L0,47.32v56.7c0,6.79,2.63,13.32,7.34,18.22l29.53,30.72v102.7c0,13.25,10.78,24.02,24.02,24.02h181.48c13.25,0,24.02-10.77,24.02-24.02V74.18c0-13.25-10.77-24.02-24.02-24.02Z"/>
    </g>
  </g>
</svg>